# xmcd CD database file
#
# Track frame offsets:
#	150
#	17867
#	33055
#	50969
#	68562
#	88178
#	107740
#	126011
#	143097
#	162451
#	181891
#	198008
#	214995
#	232019
#	251860
#	269445
#	287386
#	306389
#
# Disc length: 4321 seconds
#
# Revision: 0
# Processed by: cddbd v1.4PL0 Copyright (c) Steve Scherf et al.
# Submitted via: Feurio! 1.66 - http://www.feurio.com
#
DISCID=0b10df12
DTITLE=Various Artist - Trash Disco # 11
DYEAR=1900
DGENRE=Top 40 Dance
TTITLE0=Donna Summer - I Feel Love (RMX)
TTITLE1=Boys From Brazil - Hot Stuff
TTITLE2=Santa Esmerelda - Don't Let Me Be Misunderstood
TTITLE3=Lionel Richie - All Night Long (RMX)
TTITLE4=Sandra - Everlasting Love
TTITLE5=Kelly Marie - Feels Like I'm In Love
TTITLE6=Dusty Springfield - Born This Way
TTITLE7=Obsession - If I Can't Have You
TTITLE8=Pat and Mick - Use It Up and Wear It Out
TTITLE9=Human League - Don't You Want Me (RMX)
TTITLE10=Spandau Ballet - True (DC RMX)
TTITLE11=Lennox and Green - Put A Little Love In Your Heart
TTITLE12=Dead Or Alive - You Spin Me Round
TTITLE13=Berlin - Sex
TTITLE14=Hall and Oates - Maneater
TTITLE15=Ray Parker Jr. - The Other Woman
TTITLE16=The Supremes - Stoned Love '91
TTITLE17=Michael Sembello - Maniac
EXTD=
EXTT0=
EXTT1=
EXTT2=
EXTT3=
EXTT4=
EXTT5=
EXTT6=
EXTT7=
EXTT8=
EXTT9=
EXTT10=
EXTT11=
EXTT12=
EXTT13=
EXTT14=
EXTT15=
EXTT16=
EXTT17=
PLAYORDER=
